<svg width="18" height="36" viewBox="0 0 18 36" fill="none" xmlns="http://www.w3.org/2000/svg">
<path d="M9 0V5C9 5.55228 9.44772 6 10 6H16C16.5523 6 17 6.44772 17 7V29C17 29.5523 16.5523 30 16 30H10C9.44772 30 9 30.4477 9 31V36" stroke="#CCCCCF"/>
<path d="M7.85429 21.7845L11.6363 18.0025L7.85429 14.2205C7.61328 13.9795 7.61328 13.5888 7.85429 13.3477C8.0953 13.1067 8.48605 13.1067 8.72706 13.3477L12.9455 17.5661C13.1865 17.8072 13.1865 18.1979 12.9455 18.4389L8.72706 22.6573C8.48605 22.8983 8.0953 22.8983 7.85429 22.6573C7.61328 22.4163 7.61328 22.0256 7.85429 21.7845Z" fill="#CCCCCF"/>
<path d="M3.05429 22.0736L6.8363 18.2916L3.05429 14.5096C2.81328 14.2686 2.81328 13.8778 3.05429 13.6368C3.2953 13.3958 3.68605 13.3958 3.92706 13.6368L8.14546 17.8552C8.38647 18.0962 8.38647 18.487 8.14546 18.728L3.92706 22.9464C3.68605 23.1874 3.2953 23.1874 3.05429 22.9464C2.81328 22.7054 2.81328 22.3146 3.05429 22.0736Z" fill="#CCCCCF"/>
</svg>
